# xmcd
#
# Track frame offsets:
# 150
# 13927
# 25610
# 37197
# 49460
# 61425
# 74262
# 85735
# 97962
# 111970
# 126077
# 139450
# 153655
# 168277
# 181450
#
# Disc length: 2605 seconds
#
#
# Revision: 0
# Processed by: cddbd v1.4PL0 Copyright (c) Steve Scherf et al.
# Submitted via: FreeRIP 2.00 
#
DISCID=d50a2b0f
DTITLE=Los Invasores de Nuevo León - 15 Boleros de Oro, Vol. 2
DYEAR=1998
DGENRE=Latin
TTITLE0=Para ti mi amor
TTITLE1=La Tumba sera el final
TTITLE2=Amor de Paso
TTITLE3=Por que te conoci
TTITLE4=De que sirve
TTITLE5=Dime
TTITLE6=Bello mi destino
TTITLE7=Mi último amor
TTITLE8=Acepto el reto
TTITLE9=Quiereme como te quiero
TTITLE10=Anoche soñe
TTITLE11=Gracias porque volviste
TTITLE12=Disculpenme
TTITLE13=No puedo confiar en ti
TTITLE14=Tu vanidad
EXTD=
EXTT0=
EXTT1=
EXTT2=
EXTT3=
EXTT4=
EXTT5=
EXTT6=
EXTT7=
EXTT8=
EXTT9=
EXTT10=
EXTT11=
EXTT12=
EXTT13=
EXTT14=
PLAYORDER=
